<svg xmlns="http://www.w3.org/2000/svg" viewBox="0 0 512 512">
       <!-- Solid White Background -->
       <rect width="512" height="512" fill="#FFFFFF"/>

       <!-- Content Scaled 0.5 -->
       <g transform="translate(256,256) scale(0.5) translate(-256,-256)">
              <!-- Bowl -->
              <path d="M128 320 
               C128 390 170 448 256 448 
               C342 448 384 390 384 320 
               L128 320 Z" fill="none" stroke="#212121" stroke-width="24" stroke-linecap="round" stroke-linejoin="round"/>
              <!-- Bowl Base -->
              <path d="M200 448 L200 464 L312 464 L312 448" stroke="#212121" stroke-width="24" stroke-linecap="round" stroke-linejoin="round"/>

              <!-- Steam forming Brain -->
              <!-- Left Lobe Steam -->
              <path d="M180 280 
               Q180 200 150 180 
               Q130 160 160 130 
               Q200 100 230 130" fill="none" stroke="#212121" stroke-width="20" stroke-linecap="round"/>

              <!-- Right Lobe Steam -->
              <path d="M332 280 
               Q332 200 362 180 
               Q382 160 352 130 
               Q312 100 282 130" fill="none" stroke="#212121" stroke-width="20" stroke-linecap="round"/>

              <!-- Center/Top Connection Steam -->
              <path d="M256 260 
               Q256 200 256 160 
               Q256 120 256 100 
               Q256 60 220 60
               Q200 60 200 80" fill="none" stroke="#212121" stroke-width="20" stroke-linecap="round"/>

              <!-- Extra steam detail to make it look more brainy -->
              <path d="M230 130 Q256 150 282 130" stroke="#212121" stroke-width="20" stroke-linecap="round" fill="none"/>
       </g>

</svg>
